<svg width="197" height="23" viewBox="0 0 197 23" fill="none" xmlns="http://www.w3.org/2000/svg">
<path d="M18.7372 8.76562C18.1705 4.0625 14.6108 1.35795 9.89773 1.35795C4.51847 1.35795 0.411932 5.15625 0.411932 11.8182C0.411932 18.4602 4.44886 22.2784 9.89773 22.2784C15.1179 22.2784 18.2699 18.8082 18.7372 15.0597L14.3821 15.0398C13.9744 17.2173 12.2642 18.4702 9.96733 18.4702C6.875 18.4702 4.77699 16.1733 4.77699 11.8182C4.77699 7.58239 6.84517 5.16619 9.99716 5.16619C12.3537 5.16619 14.054 6.52841 14.3821 8.76562H18.7372ZM28.0456 22.2983C32.6791 22.2983 35.5626 19.1264 35.5626 14.4233C35.5626 9.69034 32.6791 6.52841 28.0456 6.52841C23.4121 6.52841 20.5286 9.69034 20.5286 14.4233C20.5286 19.1264 23.4121 22.2983 28.0456 22.2983ZM28.0655 19.017C25.9277 19.017 24.8339 17.0582 24.8339 14.3935C24.8339 11.7287 25.9277 9.75994 28.0655 9.75994C30.1635 9.75994 31.2572 11.7287 31.2572 14.3935C31.2572 17.0582 30.1635 19.017 28.0655 19.017ZM37.7169 22H41.9527V12.8324C41.9527 11.142 43.0266 10.0185 44.4385 10.0185C45.8305 10.0185 46.7652 10.973 46.7652 12.4744V22H50.8717V12.6733C50.8717 11.0923 51.7766 10.0185 53.3178 10.0185C54.67 10.0185 55.6842 10.8636 55.6842 12.5639V22H59.9101V11.7287C59.9101 8.41761 57.9413 6.52841 55.0976 6.52841C52.8604 6.52841 51.1203 7.67188 50.4939 9.42188H50.3348C49.8476 7.65199 48.2865 6.52841 46.1885 6.52841C44.1303 6.52841 42.5692 7.62216 41.9328 9.42188H41.7538V6.72727H37.7169V22ZM62.656 22H66.8918V12.8324C66.8918 11.142 67.9656 10.0185 69.3776 10.0185C70.7696 10.0185 71.7043 10.973 71.7043 12.4744V22H75.8108V12.6733C75.8108 11.0923 76.7156 10.0185 78.2568 10.0185C79.6091 10.0185 80.6233 10.8636 80.6233 12.5639V22H84.8491V11.7287C84.8491 8.41761 82.8804 6.52841 80.0366 6.52841C77.7994 6.52841 76.0594 7.67188 75.433 9.42188H75.2739C74.7866 7.65199 73.2256 6.52841 71.1276 6.52841C69.0693 6.52841 67.5082 7.62216 66.8719 9.42188H66.6929V6.72727H62.656V22ZM87.595 22H91.8308V6.72727H87.595V22ZM89.7229 4.75852C90.9857 4.75852 92.0197 3.79403 92.0197 2.61079C92.0197 1.4375 90.9857 0.47301 89.7229 0.47301C88.47 0.47301 87.4359 1.4375 87.4359 2.61079C87.4359 3.79403 88.47 4.75852 89.7229 4.75852ZM102.748 6.72727H99.8739V3.06818H95.6381V6.72727H93.5501V9.90909H95.6381V17.8636C95.6183 20.8565 97.6566 22.3381 100.729 22.2088C101.823 22.169 102.598 21.9503 103.026 21.8111L102.36 18.6591C102.151 18.6989 101.703 18.7983 101.306 18.7983C100.461 18.7983 99.8739 18.4801 99.8739 17.3068V9.90909H102.748V6.72727ZM108.556 1.63636H103.773L110.803 22H116.351L123.371 1.63636H118.599L113.667 17.108H113.478L108.556 1.63636ZM125.143 22H129.378V6.72727H125.143V22ZM127.271 4.75852C128.533 4.75852 129.567 3.79403 129.567 2.61079C129.567 1.4375 128.533 0.47301 127.271 0.47301C126.018 0.47301 124.984 1.4375 124.984 2.61079C124.984 3.79403 126.018 4.75852 127.271 4.75852ZM139.132 22.2983C142.91 22.2983 145.456 20.4588 146.052 17.625L142.135 17.3665C141.707 18.5298 140.613 19.1364 139.201 19.1364C137.084 19.1364 135.741 17.7344 135.741 15.4574V15.4474H146.142V14.2841C146.142 9.09375 143 6.52841 138.963 6.52841C134.468 6.52841 131.555 9.72017 131.555 14.4332C131.555 19.2756 134.429 22.2983 139.132 22.2983ZM135.741 12.8224C135.831 11.0824 137.153 9.69034 139.032 9.69034C140.872 9.69034 142.145 11.0028 142.155 12.8224H135.741ZM151.209 22H155.684L158.309 12.3949H158.498L161.123 22H165.607L169.753 6.72727H165.478L163.151 16.929H163.022L160.516 6.72727H156.31L153.844 16.9886H153.705L151.339 6.72727H147.053L151.209 22ZM177.99 22.2983C181.769 22.2983 184.314 20.4588 184.911 17.625L180.993 17.3665C180.566 18.5298 179.472 19.1364 178.06 19.1364C175.942 19.1364 174.6 17.7344 174.6 15.4574V15.4474H185V14.2841C185 9.09375 181.858 6.52841 177.821 6.52841C173.327 6.52841 170.414 9.72017 170.414 14.4332C170.414 19.2756 173.287 22.2983 177.99 22.2983ZM174.6 12.8224C174.689 11.0824 176.012 9.69034 177.891 9.69034C179.73 9.69034 181.003 11.0028 181.013 12.8224H174.6ZM187.165 22H191.4V13.3594C191.4 11.4801 192.773 10.1875 194.642 10.1875C195.228 10.1875 196.034 10.2869 196.432 10.4162V6.65767C196.054 6.56818 195.527 6.50852 195.099 6.50852C193.389 6.50852 191.987 7.50284 191.43 9.39205H191.271V6.72727H187.165V22Z" fill="#18214D"/>
</svg>
